<?xml version="1.0" encoding="utf-8"?>
<!-- Generator: Adobe Illustrator 22.1.0, SVG Export Plug-In . SVG Version: 6.00 Build 0)  -->
<svg version="1.1" id="Слой_1" xmlns="http://www.w3.org/2000/svg" xmlns:xlink="http://www.w3.org/1999/xlink" x="0px" y="0px"
	 viewBox="0 0 268.9 409" style="enable-background:new 0 0 268.9 409;" xml:space="preserve">
<style type="text/css">
	.st0{fill:#44444F;}
	.st1{fill:#65E496;}
	.st2{fill:#FFFFFF;}
	.st3{fill:#3D3D47;}
</style>
<g id="Монтажная_область_1">
	<path class="st0" d="M268.9,5v399c0,2.8-2.2,5-5,5H5c-2.8,0-5-2.2-5-5V5c0-2.8,2.2-5,5-5h258.9C266.7,0,268.9,2.2,268.9,5z"/>
	<path class="st1" d="M268.9,283.6v11.5l-13.3,7.7c-2.4,1.4-5.5,0.6-6.8-1.8c-1.4-2.4-0.6-5.5,1.8-6.8L268.9,283.6L268.9,283.6z
		 M268.9,256.6v11.5l-13.3,7.7c-2.4,1.4-5.5,0.6-6.8-1.8c-1.4-2.4-0.6-5.5,1.8-6.8L268.9,256.6L268.9,256.6z"/>
	<path class="st2" d="M5,0C2.2,0,0,2.2,0,5V0H5z"/>
	<path class="st2" d="M5,409H0v-5C0,406.8,2.2,409,5,409z"/>
	<path class="st3" d="M37.9,0v409H5c-2.8,0-5-2.2-5-5V5c0-2.8,2.2-5,5-5H37.9z"/>
</g>
</svg>
